# xmcd
#
# Track frame offsets:
# 150
# 11357
# 26912
# 43972
# 56385
# 68180
# 87705
# 100420
# 111645
# 125217
# 138470
# 145330
# 158500
# 168850
# 184437
# 199962
#
# Disc length: 2866 seconds
#
# Revision: 0
# Processed by: cddbd v1.5PL3 Copyright (c) Steve Scherf et al.
# Submitted via: plextools 2.11
#
DISCID=f60b3010
DTITLE=The Blacing Aces - The Blacing Aces
DYEAR=1900
DGENRE=Rock and Roll
TTITLE0=The Blacing Aces - Walk Right In
TTITLE1=The Blacing Aces - Natural Ball
TTITLE2=The Blacing Aces - Lipstick
TTITLE3=The Blacing Aces - Give Me All Your Lovin'
TTITLE4=The Blacing Aces - Roller Coaster
TTITLE5=The Blacing Aces - P.S. I Love You
TTITLE6=The Blacing Aces - Don't Worry
TTITLE7=The Blacing Aces - Diddy Wah Diddy
TTITLE8=The Blacing Aces - I Ain't Drunk
TTITLE9=The Blacing Aces - The Comeback
TTITLE10=The Blacing Aces - Stealin' Corn
TTITLE11=The Blacing Aces - Get On The Right Track
TTITLE12=The Blacing Aces - Baby, Please Come Home
TTITLE13=The Blacing Aces - Walkman Blues
TTITLE14=The Blacing Aces - Everybody Makes Mistakes
TTITLE15=The Blacing Aces - Slow Down
EXTD=
EXTT0=
EXTT1=
EXTT2=
EXTT3=
EXTT4=
EXTT5=
EXTT6=
EXTT7=
EXTT8=
EXTT9=
EXTT10=
EXTT11=
EXTT12=
EXTT13=
EXTT14=
EXTT15=
PLAYORDER=
